<?xml version="1.0" encoding="utf-8"?>
<!-- Generator: Adobe Illustrator 13.0.0, SVG Export Plug-In . SVG Version: 6.00 Build 14948)  -->
<!DOCTYPE svg PUBLIC "-//W3C//DTD SVG 1.1//EN" "http://www.w3.org/Graphics/SVG/1.1/DTD/svg11.dtd">
<svg version="1.1" id="Vrstva_1" xmlns="http://www.w3.org/2000/svg" xmlns:xlink="http://www.w3.org/1999/xlink" x="0px" y="0px"
	 width="756.735px" height="301.105px" viewBox="0 0 756.735 301.105" enable-background="new 0 0 756.735 301.105"
	 xml:space="preserve">
<polygon points="167.268,130.491 678.987,130.491 644.95,229.344 133.23,229.344 "/>
<polygon fill="#FFFFFF" points="172.586,37.883 755.333,37.883 721.907,134.96 139.16,134.96 "/>
<g>
	<g>
		<polygon fill="none" stroke="#000000" stroke-width="2" points="139.16,134.96 721.907,134.96 755.333,37.884 172.586,37.884 		
			"/>
	</g>
	<g>
		<g>
			<path fill="#FFFFFF" d="M336.171,167.622c-5.858-2.495-11.774-3.743-17.745-3.743c-5.183,0-7.772,1.728-7.772,5.183
				c0,2.879,2.28,4.967,6.844,6.263c7.772,2.016,13.167,4.366,16.181,7.054s4.521,6.216,4.521,10.581
				c0,10.317-7.662,15.476-22.983,15.476c-6.536,0-12.366-1.247-17.491-3.743v-10.437c5.294,3.071,10.843,4.605,16.646,4.605
				c2.984,0,5.252-0.49,6.802-1.476c1.548-0.982,2.323-2.387,2.323-4.211c0-1.583-0.536-2.879-1.605-3.887
				c-1.069-1.009-2.929-1.871-5.576-2.592c-7.099-1.919-12.225-4.307-15.378-7.161c-3.155-2.854-4.731-6.347-4.731-10.474
				c0-4.51,1.844-8.072,5.534-10.688c3.689-2.614,8.97-3.923,15.843-3.923c7.153,0,13.351,0.961,18.589,2.88V167.622
				L336.171,167.622z"/>
			<path fill="#FFFFFF" d="M391.516,155.17v10.147h-16.308v42.396h-14.703v-42.396h-16.308V155.17H391.516z"/>
			<path fill="#FFFFFF" d="M413.653,188.279v19.436h-14.111v-52.186c6.139-0.72,12.898-1.079,20.279-1.079
				c8.449,0,14.744,1.355,18.885,4.066c4.141,2.712,6.211,6.563,6.211,11.553c0,3.216-1.1,6.106-3.295,8.674
				c-2.197,2.567-5.1,4.402-8.703,5.507v0.144c2.928,1.394,5.322,4.247,7.182,8.565l6.508,14.756h-14.787l-5.83-14.252
				c-0.791-2.017-1.748-3.383-2.873-4.104c-1.129-0.72-2.873-1.08-5.24-1.08H413.653z M413.653,179.282h4.73
				c3.941,0,6.957-0.707,9.041-2.123c2.084-1.415,3.127-3.396,3.127-5.938c0-4.99-3.859-7.485-11.576-7.485
				c-2.027,0-3.803,0.145-5.322,0.433V179.282L413.653,179.282z"/>
			<path fill="#FFFFFF" d="M451.844,207.714l20.025-52.544h15.211l19.941,52.544h-15.211l-3.381-11.373h-18.336l-3.295,11.373
				H451.844z M472.885,187.056h12.76l-6.254-21.306h-0.17L472.885,187.056z"/>
			<path fill="#FFFFFF" d="M513.95,207.714V155.17h13.771l19.941,32.246h0.168V155.17h13.688v52.544h-13.688l-19.941-32.246h-0.168
				v32.246H513.95z"/>
			<path fill="#FFFFFF" d="M568.45,207.714l20.023-52.544h15.211l19.941,52.544h-15.211l-3.379-11.373H586.7l-3.295,11.373H568.45z
				 M589.489,187.056h12.76l-6.254-21.306h-0.168L589.489,187.056z"/>
		</g>
	</g>
</g>
<g>
	<g>
		<defs>
			<path id="SVGID_1_" d="M1,135.231c0,74.135,60.097,134.23,134.231,134.23c73.695,0,133.519-59.392,134.225-132.919v-2.624
				C268.75,60.392,208.926,1,135.231,1C61.097,1,1,61.099,1,135.231"/>
		</defs>
		<clipPath id="SVGID_2_">
			<use xlink:href="#SVGID_1_"  overflow="visible"/>
		</clipPath>
		<path clip-path="url(#SVGID_2_)" fill="#FFFFFF" d="M135.23,269.463c74.132,0,134.225-60.098,134.225-134.229
			c0-74.136-60.093-134.231-134.225-134.231S0.998,61.098,0.998,135.233C0.998,209.365,61.099,269.463,135.23,269.463"/>
	</g>
</g>
<g>
	<g>
		<defs>
			<path id="SVGID_3_" d="M85.39,10.559C51.413,24.153,24.291,51.237,10.64,85.186v100.092
				c13.595,33.81,40.551,60.813,74.333,74.461h100.515c33.782-13.651,60.741-40.651,74.334-74.464V85.188
				c-13.65-33.954-40.771-61.034-74.75-74.63L85.39,10.559L85.39,10.559z"/>
		</defs>
		<clipPath id="SVGID_4_">
			<use xlink:href="#SVGID_3_"  overflow="visible"/>
		</clipPath>
		<path clip-path="url(#SVGID_4_)" fill="#FFFFFF" d="M135.232,252.802c-64.979,0-117.656-52.677-117.656-117.656
			c0-64.979,52.677-117.655,117.656-117.655s117.656,52.676,117.656,117.654C252.888,200.124,200.212,252.802,135.232,252.802"/>
	</g>
	<g>
		<defs>
			<path id="SVGID_5_" d="M85.39,10.559C51.413,24.153,24.291,51.237,10.64,85.186v100.092
				c13.595,33.81,40.551,60.813,74.333,74.461h100.515c33.782-13.651,60.741-40.651,74.334-74.464V85.188
				c-13.65-33.954-40.771-61.034-74.75-74.63L85.39,10.559L85.39,10.559z"/>
		</defs>
		<clipPath id="SVGID_6_">
			<use xlink:href="#SVGID_5_"  overflow="visible"/>
		</clipPath>
		<circle clip-path="url(#SVGID_6_)" fill="none" stroke="#000000" stroke-width="11.7379" cx="135.232" cy="135.146" r="117.656"/>
	</g>
	<g>
		<defs>
			<path id="SVGID_7_" d="M85.39,10.559C51.413,24.153,24.291,51.237,10.64,85.186v100.092
				c13.595,33.81,40.551,60.813,74.333,74.461h100.515c33.782-13.651,60.741-40.651,74.334-74.464V85.188
				c-13.65-33.954-40.771-61.034-74.75-74.63L85.39,10.559L85.39,10.559z"/>
		</defs>
		<clipPath id="SVGID_8_">
			<use xlink:href="#SVGID_7_"  overflow="visible"/>
		</clipPath>
		<path clip-path="url(#SVGID_8_)" d="M76.342,70.388c12.947-3.775,67.545,3.657,56.389,56.47
			c-4.06,19.223-26.338,28.585-37.132,36.674c-25.562,19.139-3.549,64.601-3.549,64.601s-11.909-35.361,14.612-52.091
			c24.396-15.393,108.515-8.158,108.227-55.632C214.338,29.449,72.603,62.261,76.342,70.388"/>
	</g>
	<g>
		<defs>
			<path id="SVGID_9_" d="M85.39,10.559C51.413,24.153,24.291,51.237,10.64,85.186v100.092
				c13.595,33.81,40.551,60.813,74.333,74.461h100.515c33.782-13.651,60.741-40.651,74.334-74.464V85.188
				c-13.65-33.954-40.771-61.034-74.75-74.63L85.39,10.559L85.39,10.559z"/>
		</defs>
		<clipPath id="SVGID_10_">
			<use xlink:href="#SVGID_9_"  overflow="visible"/>
		</clipPath>
		<rect x="87.229" y="44.373" clip-path="url(#SVGID_10_)" width="10.783" height="133.732"/>
	</g>
</g>
<g>
	<g>
		<defs>
			<rect id="SVGID_11_" y="0" width="756.676" height="313.566"/>
		</defs>
		<clipPath id="SVGID_12_">
			<use xlink:href="#SVGID_11_"  overflow="visible"/>
		</clipPath>
		<circle clip-path="url(#SVGID_12_)" fill="none" stroke="#000000" stroke-width="2" cx="135.231" cy="135.232" r="134.231"/>
	</g>
	<g>
		<defs>
			<rect id="SVGID_13_" y="0" width="756.676" height="313.566"/>
		</defs>
		<clipPath id="SVGID_14_">
			<use xlink:href="#SVGID_13_"  overflow="visible"/>
		</clipPath>
		<g clip-path="url(#SVGID_14_)">
			<path d="M312.414,100.137v17.303h-16.477V62.419c5.858-0.759,12.054-1.139,18.589-1.139c19.151,0,28.729,6.197,28.729,18.594
				c0,6.729-2.155,11.827-6.464,15.292c-4.31,3.466-10.604,5.198-18.885,5.198C315.709,100.365,313.878,100.288,312.414,100.137z
				 M312.414,89.132c1.126,0.152,2.394,0.229,3.802,0.229c3.661,0,6.479-0.76,8.45-2.276c1.971-1.519,2.958-3.667,2.958-6.45
				c0-5.313-3.802-7.969-11.407-7.969c-1.24,0-2.507,0.127-3.802,0.38L312.414,89.132L312.414,89.132z"/>
			<path d="M348.831,117.439V62.039h18.589v55.399H348.831z"/>
			<path d="M394.29,98.087v19.353h-16.477V62.419c7.321-0.759,14.645-1.139,21.969-1.139c16.898,0,25.35,5.691,25.35,17.074
				c0,3.188-1.1,6.147-3.297,8.88c-2.195,2.731-5.041,4.681-8.533,5.844v0.151c1.689,0.86,3.098,1.961,4.225,3.302
				c1.127,1.342,2.197,3.252,3.211,5.729l6.084,15.178h-17.322l-5.238-14.419c-0.621-1.771-1.406-3.036-2.363-3.795
				c-0.959-0.759-2.229-1.139-3.805-1.139L394.29,98.087L394.29,98.087z M394.29,87.083h4.646c2.873,0,5.141-0.646,6.803-1.936
				c1.66-1.291,2.492-3.048,2.492-5.273c0-4.808-3.1-7.21-9.295-7.21c-1.805,0-3.354,0.127-4.646,0.38V87.083z"/>
			<path d="M450.309,106.814l-2.617,10.625h-17.576l19.434-55.399h17.744l19.436,55.399h-17.912l-2.621-10.625H450.309z
				 M461.801,57.486h-13.52l8.449-13.66h18.59L461.801,57.486z M453.098,95.432h10.309l-5.068-20.491h-0.17L453.098,95.432z"/>
			<path d="M531.51,62.039v12.521h-15.885v42.878h-17.238V74.562h-15.885V62.039H531.51z"/>
			<path d="M578.659,76.687c-6.197-2.528-12.252-3.795-18.166-3.795c-4.621,0-6.93,1.442-6.93,4.326c0,2.53,1.887,4.301,5.66,5.313
				c7.887,2.073,13.379,4.553,16.479,7.437c3.098,2.884,4.646,6.729,4.646,11.536c0,11.131-8.027,16.695-24.082,16.695
				c-6.984,0-13.041-1.392-18.166-4.175v-12.521c5.406,3.289,11.182,4.933,17.32,4.933c5.07,0,7.605-1.518,7.605-4.554
				c0-1.416-0.396-2.504-1.184-3.264c-0.789-0.76-2.227-1.441-4.311-2.05c-7.492-2.072-12.885-4.667-16.182-7.777
				c-3.295-3.111-4.941-6.969-4.941-11.573c0-4.958,1.984-8.854,5.957-11.688c3.971-2.833,9.729-4.25,17.277-4.25
				c7.438,0,13.773,1.013,19.014,3.035v12.37H578.659z"/>
			<path d="M605.106,85.565h0.17l14.193-23.525h19.436l-17.744,26.562l18.59,28.839h-19.434l-15.041-25.803h-0.17v25.803h-16.898
				V62.04h16.898V85.565L605.106,85.565z"/>
			<path d="M662.817,106.814l-2.619,10.625h-17.576l19.436-55.399h17.744l19.436,55.399h-17.914l-2.619-10.625H662.817z
				 M674.309,57.486h-13.52l8.449-13.66h18.59L674.309,57.486z M665.606,95.432h10.309l-5.07-20.491h-0.168L665.606,95.432z"/>
		</g>
	</g>
	<g>
		<defs>
			<rect id="SVGID_15_" y="0" width="756.676" height="313.566"/>
		</defs>
		<clipPath id="SVGID_16_">
			<use xlink:href="#SVGID_15_"  overflow="visible"/>
		</clipPath>
	</g>
</g>
</svg>
